<svg xmlns="http://www.w3.org/2000/svg" viewBox="0 0 845 321" role="img" aria-labelledby="title">
  <title>We hold your hand</title>
  <defs>
    <linearGradient id="bg3" x1="0%" y1="0%" x2="100%" y2="100%">
      <stop offset="0%" style="stop-color:#d4e8f7"/>
      <stop offset="100%" style="stop-color:#379cd6"/>
    </linearGradient>
  </defs>
  <rect width="845" height="321" fill="url(#bg3)"/>
  <g fill="#ffffff" opacity="0.95">
    <path d="M300 200c0-55 45-100 100-100s100 45 100 100H300zm100-75c-38 0-68 30-68 68h136c0-38-30-68-68-68z"/>
    <circle cx="400" cy="125" r="35" fill="#094978" opacity="0.35"/>
    <path d="M520 145c35-20 75-15 95 15 20 30 5 70-30 85-35 15-80 0-100-35-20-35-5-75 25-95 30-20 60-5 85 25 25 30 70 20 100-10 30-50 25-80-5-25-55-20-80 5z" fill="#fff"/>
    <circle cx="545" cy="165" r="48" fill="none" stroke="#fff" stroke-width="14"/>
    <text x="545" y="175" text-anchor="middle" font-family="Arial,sans-serif" font-size="42" font-weight="bold" fill="#094978">?</text>
  </g>
</svg>
